<svg xmlns="http://www.w3.org/2000/svg" viewBox="0 0 180 110">
  <defs>
    <style>
      .uuid-3a4ea443-3af0-498d-a530-e4f07550f598 {
        fill-rule: evenodd;
      }

      .uuid-3a4ea443-3af0-498d-a530-e4f07550f598, .uuid-ab1fb21f-20f4-46f4-822c-a0b813757736 {
        fill: #123fd8;
      }
    </style>
  </defs>
  <g>
    <g>
      <g>
        <path class="uuid-ab1fb21f-20f4-46f4-822c-a0b813757736" d="M167.51,89.23H8.23v-3.74h159.28v3.74ZM88.16,88.65h78.77v-2.58h-78.77v2.58ZM72.24,88.65h15.34v-2.58h-15.34v2.58ZM56.38,88.65h15.28v-2.58h-15.28v2.58ZM40.53,88.65h15.28v-2.58h-15.28v2.58ZM8.81,88.65h31.13v-2.58H8.81v2.58Z"/>
        <polyline class="uuid-3a4ea443-3af0-498d-a530-e4f07550f598" points="24.38 88.94 24.38 85.78 8.52 85.78"/>
        <polyline class="uuid-3a4ea443-3af0-498d-a530-e4f07550f598" points="8.52 85.78 8.52 88.94 24.38 88.94"/>
        <polyline class="uuid-3a4ea443-3af0-498d-a530-e4f07550f598" points="56.09 88.94 56.09 85.78 40.23 85.78"/>
        <polyline class="uuid-3a4ea443-3af0-498d-a530-e4f07550f598" points="40.23 85.78 40.23 88.94 56.09 88.94"/>
        <polyline class="uuid-3a4ea443-3af0-498d-a530-e4f07550f598" points="87.87 88.94 87.87 85.78 71.95 85.78"/>
        <polyline class="uuid-3a4ea443-3af0-498d-a530-e4f07550f598" points="71.95 85.78 71.95 88.94 87.87 88.94"/>
      </g>
      <path class="uuid-ab1fb21f-20f4-46f4-822c-a0b813757736" d="M4.67,98.51c0-3.47,1.84-5.24,4.06-5.24s4.03,1.77,4.03,5.24-1.65,5.33-4.03,5.33-4.06-1.86-4.06-5.33ZM11.39,98.51c0-2.47-1.03-4.06-2.66-4.06s-2.68,1.6-2.68,4.06c0,2.63,1,4.15,2.68,4.15s2.66-1.51,2.66-4.15Z"/>
    </g>
    <path class="uuid-ab1fb21f-20f4-46f4-822c-a0b813757736" d="M79.21,67.68v-10.16h1.76s5.62,7.97,5.62,7.97v-2.26s0-5.7,0-5.7h1.31v10.16h-1.32s-6.05-8.59-6.05-8.59v2.57s0,6.02,0,6.02h-1.31Z"/>
    <polygon class="uuid-ab1fb21f-20f4-46f4-822c-a0b813757736" points="93.5 6.16 98.79 13.98 85.05 50.01 85.69 11.45 93.5 6.16"/>
  </g>
  <g>
    <path class="uuid-ab1fb21f-20f4-46f4-822c-a0b813757736" d="M83.27,103.63v-8.39c-.57.93-1.63,1.71-2.74,1.9v-1.36c1.19-.3,2.32-1.06,3-2.31h1.03v10.16h-1.29Z"/>
    <path class="uuid-ab1fb21f-20f4-46f4-822c-a0b813757736" d="M86.94,98.51c0-3.47,1.84-5.24,4.06-5.24s4.03,1.77,4.03,5.24-1.65,5.33-4.03,5.33-4.06-1.86-4.06-5.33ZM93.66,98.51c0-2.47-1.03-4.06-2.66-4.06s-2.68,1.6-2.68,4.06c0,2.63,1,4.15,2.68,4.15s2.66-1.51,2.66-4.15Z"/>
  </g>
  <g>
    <path class="uuid-ab1fb21f-20f4-46f4-822c-a0b813757736" d="M158.86,103.63v-1.44c2.77-1.74,5.2-3.53,5.2-5.64,0-1.39-.89-2.1-1.94-2.1s-2.02.78-2.02,2.32l-1.32-.17c.01-1.97,1.32-3.32,3.35-3.32s3.31,1.32,3.31,3.13c0,1.07-.36,1.99-1.03,2.8-.9,1.1-2.31,2.12-4.09,3.22h5.25v1.2h-6.7Z"/>
    <path class="uuid-ab1fb21f-20f4-46f4-822c-a0b813757736" d="M167.23,98.51c0-3.47,1.84-5.24,4.06-5.24s4.03,1.77,4.03,5.24-1.65,5.33-4.03,5.33-4.06-1.86-4.06-5.33ZM173.95,98.51c0-2.47-1.03-4.06-2.66-4.06s-2.68,1.6-2.68,4.06c0,2.63,1,4.15,2.68,4.15s2.66-1.51,2.66-4.15Z"/>
  </g>
</svg>
