<svg xmlns="http://www.w3.org/2000/svg" viewBox="0 0 110 65">
  <defs>
    <style>
      .uuid-7a32c0a4-3613-491e-a690-c897f73c12e6 {
        fill: #123fd8cc;
      }
    </style>
  </defs>
  <g>
    <path class="uuid-7a32c0a4-3613-491e-a690-c897f73c12e6" d="M102.61,51.23H4.77v2.3h97.84v-2.3ZM24.25,53.17h-9.56v-1.58h9.56v1.58ZM43.73,53.17h-9.38v-1.58h9.38v1.58ZM102.26,53.17h-48.39v-1.58h48.39v1.58Z"/>
    <path class="uuid-7a32c0a4-3613-491e-a690-c897f73c12e6" d="M5.08,56.01c-1.36,0-2.5,1.09-2.5,3.22s1.03,3.27,2.5,3.27,2.48-1.13,2.48-3.27-1.12-3.22-2.48-3.22ZM5.08,61.78c-1.03,0-1.65-.94-1.65-2.55,0-1.51.63-2.5,1.65-2.5s1.63.98,1.63,2.5c0,1.62-.62,2.55-1.63,2.55Z"/>
    <polygon class="uuid-7a32c0a4-3613-491e-a690-c897f73c12e6" points="49.18 36.59 49.18 35.01 52.89 40.29 53.7 40.29 53.7 34.05 52.9 34.05 52.9 37.55 52.9 38.94 49.45 34.05 48.37 34.05 48.37 40.29 49.18 40.29 49.18 36.59"/>
    <polygon class="uuid-7a32c0a4-3613-491e-a690-c897f73c12e6" points="57.15 2.5 52.35 5.75 51.96 29.43 60.4 7.3 57.15 2.5"/>
    <path class="uuid-7a32c0a4-3613-491e-a690-c897f73c12e6" d="M49.18,57.55v.84c.69-.12,1.34-.6,1.68-1.17v5.15h.79v-6.24h-.63c-.42.77-1.11,1.23-1.85,1.42Z"/>
    <path class="uuid-7a32c0a4-3613-491e-a690-c897f73c12e6" d="M55.62,56.01c-1.36,0-2.5,1.09-2.5,3.22s1.03,3.27,2.5,3.27,2.48-1.13,2.48-3.27-1.12-3.22-2.48-3.22ZM55.62,61.78c-1.03,0-1.65-.94-1.65-2.55,0-1.52.63-2.5,1.65-2.5s1.63.98,1.63,2.5c0,1.62-.62,2.55-1.63,2.55Z"/>
    <path class="uuid-7a32c0a4-3613-491e-a690-c897f73c12e6" d="M98.19,61.64c1.1-.68,1.96-1.3,2.51-1.98.41-.5.63-1.06.63-1.72,0-1.11-.76-1.93-2.03-1.93s-2.05.83-2.06,2.04l.81.11c0-.95.57-1.43,1.24-1.43s1.19.44,1.19,1.29c0,1.3-1.49,2.4-3.19,3.47v.88h4.12v-.74h-3.23Z"/>
    <path class="uuid-7a32c0a4-3613-491e-a690-c897f73c12e6" d="M104.94,56.01c-1.36,0-2.5,1.09-2.5,3.22s1.03,3.27,2.5,3.27,2.48-1.13,2.48-3.27-1.12-3.22-2.48-3.22ZM104.94,61.78c-1.03,0-1.65-.94-1.65-2.55,0-1.52.63-2.5,1.65-2.5s1.63.98,1.63,2.5c0,1.62-.61,2.55-1.63,2.55Z"/>
  </g>
  <path class="uuid-7a32c0a4-3613-491e-a690-c897f73c12e6" d="M99.33,48.3v-5.49h.91v.87c.2-.39.69-1.02,1.69-1.02.82,0,1.45.45,1.72,1.19.22-.51.73-1.19,1.85-1.19,1.23,0,1.92.72,1.92,2.02v3.63h-.94v-3.37c0-1.04-.5-1.44-1.23-1.44-1.38,0-1.42,1.43-1.42,2.17v2.64h-.92v-3.36c0-1.05-.5-1.45-1.23-1.45-1.35,0-1.41,1.43-1.41,2.21v2.61h-.93Z"/>
</svg>
