<svg xmlns="http://www.w3.org/2000/svg" viewBox="0 0 180 110">
  <defs>
    <style>
      .uuid-de83cde8-ba17-412e-9d55-768b39f90c0d {
        fill: #123fd8;
      }
    </style>
  </defs>
  <g>
    <path class="uuid-de83cde8-ba17-412e-9d55-768b39f90c0d" d="M167.51,85.49H8.23v3.74h159.28v-3.74ZM39.95,88.65h-15.57v-2.58h15.57v2.58ZM71.66,88.65h-15.28v-2.58h15.28v2.58ZM166.93,88.65h-78.77v-2.58h78.77v2.58Z"/>
    <path class="uuid-de83cde8-ba17-412e-9d55-768b39f90c0d" d="M8.73,93.27c-2.22,0-4.06,1.77-4.06,5.24s1.67,5.33,4.06,5.33,4.03-1.84,4.03-5.33-1.83-5.24-4.03-5.24ZM8.73,102.66c-1.68,0-2.68-1.52-2.68-4.15,0-2.47,1.03-4.06,2.68-4.06s2.66,1.6,2.66,4.06c0,2.64-1,4.15-2.66,4.15Z"/>
    <polygon class="uuid-de83cde8-ba17-412e-9d55-768b39f90c0d" points="80.52 61.66 80.52 59.09 86.57 67.68 87.89 67.68 87.89 57.52 86.58 57.52 86.58 63.22 86.58 65.49 80.97 57.52 79.21 57.52 79.21 67.68 80.52 67.68 80.52 61.66"/>
    <polygon class="uuid-de83cde8-ba17-412e-9d55-768b39f90c0d" points="93.5 6.16 85.69 11.45 85.05 50.01 98.79 13.98 93.5 6.16"/>
    <path class="uuid-de83cde8-ba17-412e-9d55-768b39f90c0d" d="M80.52,95.78v1.36c1.12-.19,2.18-.97,2.74-1.9v8.39h1.29v-10.16h-1.03c-.68,1.25-1.81,2-3,2.31Z"/>
    <path class="uuid-de83cde8-ba17-412e-9d55-768b39f90c0d" d="M91,93.27c-2.22,0-4.06,1.77-4.06,5.24s1.67,5.33,4.06,5.33,4.03-1.84,4.03-5.33-1.83-5.24-4.03-5.24ZM91,102.66c-1.68,0-2.68-1.52-2.68-4.15,0-2.47,1.03-4.06,2.68-4.06s2.66,1.6,2.66,4.06c0,2.64-1,4.15-2.66,4.15Z"/>
    <path class="uuid-de83cde8-ba17-412e-9d55-768b39f90c0d" d="M160.31,102.43c1.78-1.1,3.19-2.12,4.09-3.22.67-.81,1.03-1.73,1.03-2.8,0-1.81-1.23-3.13-3.31-3.13s-3.34,1.35-3.35,3.32l1.32.17c0-1.54.93-2.32,2.02-2.32s1.94.71,1.94,2.1c0,2.12-2.42,3.9-5.2,5.65v1.44h6.7v-1.2h-5.25Z"/>
    <path class="uuid-de83cde8-ba17-412e-9d55-768b39f90c0d" d="M171.3,93.27c-2.22,0-4.06,1.77-4.06,5.24s1.67,5.33,4.06,5.33,4.03-1.84,4.03-5.33-1.83-5.24-4.03-5.24ZM171.3,102.66c-1.68,0-2.68-1.52-2.68-4.15,0-2.47,1.03-4.06,2.68-4.06s2.66,1.6,2.66,4.06c0,2.64-1,4.15-2.66,4.15Z"/>
  </g>
  <path class="uuid-de83cde8-ba17-412e-9d55-768b39f90c0d" d="M162.17,80.72v-8.94h1.48v1.41c.33-.63,1.12-1.66,2.75-1.66,1.34,0,2.37.74,2.8,1.93.36-.83,1.19-1.93,3.02-1.93,2,0,3.12,1.17,3.12,3.29v5.91h-1.53v-5.49c0-1.7-.81-2.35-2-2.35-2.24,0-2.31,2.33-2.31,3.54v4.3h-1.5v-5.47c0-1.72-.81-2.37-2-2.37-2.2,0-2.29,2.33-2.29,3.59v4.24h-1.52Z"/>
</svg>
