<svg xmlns="http://www.w3.org/2000/svg" viewBox="0 0 180 110">
  <defs>
    <style>
      .uuid-4bd6dc38-b233-4146-a18b-8c7e101a2c2b {
        fill: #123fd8cc;
      }
    </style>
  </defs>
  <g>
    <path class="uuid-4bd6dc38-b233-4146-a18b-8c7e101a2c2b" d="M166.26,85.94H6.98v3.74h159.28v-3.74ZM38.69,89.1h-15.57v-2.58h15.57v2.58ZM70.41,89.1h-15.28v-2.58h15.28v2.58ZM165.68,89.1h-78.77v-2.58h78.77v2.58Z"/>
    <path class="uuid-4bd6dc38-b233-4146-a18b-8c7e101a2c2b" d="M7.48,93.73c-2.22,0-4.06,1.77-4.06,5.24s1.67,5.33,4.06,5.33,4.03-1.84,4.03-5.33-1.83-5.24-4.03-5.24ZM7.48,103.11c-1.68,0-2.68-1.52-2.68-4.15,0-2.47,1.03-4.06,2.68-4.06s2.66,1.6,2.66,4.06c0,2.64-1,4.15-2.66,4.15Z"/>
    <path class="uuid-4bd6dc38-b233-4146-a18b-8c7e101a2c2b" d="M82.53,97.67c-1.12,0-1.89.45-2.42,1.12.07-.45.15-.95.22-1.48l.32-2.18h4.8v-1.2h-5.78l-.84,5.76,1.39.22c.41-.65,1.06-1.15,1.99-1.15,1.34,0,2.18.86,2.18,2.19s-.86,2.19-2.19,2.19c-1.15,0-2.02-.64-2.25-1.84l-1.32.44c.28,1.41,1.49,2.55,3.63,2.55s3.48-1.38,3.48-3.38-1.25-3.23-3.21-3.23Z"/>
    <path class="uuid-4bd6dc38-b233-4146-a18b-8c7e101a2c2b" d="M91.44,93.73c-2.22,0-4.06,1.77-4.06,5.24s1.67,5.33,4.06,5.33,4.03-1.84,4.03-5.33-1.83-5.24-4.03-5.24ZM91.44,103.11c-1.68,0-2.68-1.52-2.68-4.15,0-2.47,1.03-4.06,2.68-4.06s2.66,1.6,2.66,4.06c0,2.64-1,4.15-2.66,4.15Z"/>
    <path class="uuid-4bd6dc38-b233-4146-a18b-8c7e101a2c2b" d="M152.27,96.24v1.36c1.12-.19,2.18-.97,2.74-1.9v8.39h1.29v-10.16h-1.03c-.68,1.25-1.81,2-3,2.31Z"/>
    <path class="uuid-4bd6dc38-b233-4146-a18b-8c7e101a2c2b" d="M162.74,93.73c-2.22,0-4.06,1.77-4.06,5.24s1.67,5.33,4.06,5.33,4.03-1.84,4.03-5.33-1.83-5.24-4.03-5.24ZM162.74,103.11c-1.68,0-2.68-1.52-2.68-4.15,0-2.47,1.03-4.06,2.68-4.06s2.66,1.6,2.66,4.06c0,2.64-1,4.15-2.66,4.15Z"/>
    <path class="uuid-4bd6dc38-b233-4146-a18b-8c7e101a2c2b" d="M172.55,93.73c-2.22,0-4.06,1.77-4.06,5.24s1.67,5.33,4.06,5.33,4.03-1.84,4.03-5.33-1.83-5.24-4.03-5.24ZM172.55,103.11c-1.68,0-2.68-1.52-2.68-4.15,0-2.47,1.03-4.06,2.68-4.06s2.66,1.6,2.66,4.06c0,2.64-1,4.15-2.66,4.15Z"/>
    <polygon class="uuid-4bd6dc38-b233-4146-a18b-8c7e101a2c2b" points="116.48 49.24 116.48 46.67 122.53 55.26 123.85 55.26 123.85 45.1 122.55 45.1 122.55 50.8 122.55 53.07 116.93 45.1 115.17 45.1 115.17 55.26 116.48 55.26 116.48 49.24"/>
    <polygon class="uuid-4bd6dc38-b233-4146-a18b-8c7e101a2c2b" points="106.44 50.16 68.06 46.48 61.93 53.65 69.11 59.78 106.44 50.16"/>
  </g>
  <path class="uuid-4bd6dc38-b233-4146-a18b-8c7e101a2c2b" d="M163.28,80.72v-8.94h1.48v1.41c.33-.63,1.12-1.66,2.75-1.66,1.34,0,2.37.74,2.8,1.93.36-.83,1.19-1.93,3.02-1.93,2,0,3.12,1.17,3.12,3.29v5.91h-1.53v-5.49c0-1.7-.81-2.35-2-2.35-2.24,0-2.31,2.33-2.31,3.54v4.3h-1.5v-5.47c0-1.72-.81-2.37-2-2.37-2.2,0-2.29,2.33-2.29,3.59v4.24h-1.52Z"/>
</svg>
