<svg xmlns="http://www.w3.org/2000/svg" viewBox="0 0 180 110">
  <defs>
    <style>
      .uuid-6e134645-f9c9-4be1-b686-2eea19a2a256 {
        fill-rule: evenodd;
      }

      .uuid-6e134645-f9c9-4be1-b686-2eea19a2a256, .uuid-e02f7f68-b21b-4491-a749-05b7107113a8 {
        fill: #123fd8;
      }
    </style>
  </defs>
  <g>
    <path class="uuid-e02f7f68-b21b-4491-a749-05b7107113a8" d="M166.26,89.68H6.98v-3.74h159.28v3.74ZM86.91,89.1h78.77v-2.58h-78.77v2.58ZM70.99,89.1h15.34v-2.58h-15.34v2.58ZM55.13,89.1h15.28v-2.58h-15.28v2.58ZM39.27,89.1h15.28v-2.58h-15.28v2.58ZM7.56,89.1h31.13v-2.58H7.56v2.58Z"/>
    <polyline class="uuid-6e134645-f9c9-4be1-b686-2eea19a2a256" points="23.13 89.39 23.13 86.23 7.27 86.23"/>
    <polyline class="uuid-6e134645-f9c9-4be1-b686-2eea19a2a256" points="7.27 86.23 7.27 89.39 23.13 89.39"/>
    <polyline class="uuid-6e134645-f9c9-4be1-b686-2eea19a2a256" points="54.84 89.39 54.84 86.23 38.98 86.23"/>
    <polyline class="uuid-6e134645-f9c9-4be1-b686-2eea19a2a256" points="38.98 86.23 38.98 89.39 54.84 89.39"/>
    <polyline class="uuid-6e134645-f9c9-4be1-b686-2eea19a2a256" points="86.62 89.39 86.62 86.23 70.7 86.23"/>
    <polyline class="uuid-6e134645-f9c9-4be1-b686-2eea19a2a256" points="70.7 86.23 70.7 89.39 86.62 89.39"/>
  </g>
  <path class="uuid-e02f7f68-b21b-4491-a749-05b7107113a8" d="M3.42,98.96c0-3.47,1.84-5.24,4.06-5.24s4.03,1.77,4.03,5.24-1.65,5.33-4.03,5.33-4.06-1.86-4.06-5.33ZM10.14,98.96c0-2.47-1.03-4.06-2.66-4.06s-2.68,1.6-2.68,4.06c0,2.63,1,4.15,2.68,4.15s2.66-1.51,2.66-4.15Z"/>
  <g>
    <path class="uuid-e02f7f68-b21b-4491-a749-05b7107113a8" d="M78.63,101.73l1.32-.44c.23,1.2,1.1,1.84,2.25,1.84,1.33,0,2.19-.84,2.19-2.19s-.84-2.19-2.18-2.19c-.93,0-1.58.49-1.99,1.15l-1.39-.22.84-5.76h5.78v1.2h-4.8l-.32,2.18c-.07.54-.15,1.03-.22,1.48.54-.67,1.31-1.12,2.42-1.12,1.96,0,3.21,1.26,3.21,3.24s-1.35,3.38-3.48,3.38-3.35-1.15-3.63-2.55Z"/>
    <path class="uuid-e02f7f68-b21b-4491-a749-05b7107113a8" d="M87.37,98.96c0-3.47,1.84-5.24,4.06-5.24s4.03,1.77,4.03,5.24-1.65,5.33-4.03,5.33-4.06-1.86-4.06-5.33ZM94.09,98.96c0-2.47-1.03-4.06-2.66-4.06s-2.68,1.6-2.68,4.06c0,2.63,1,4.15,2.68,4.15s2.66-1.51,2.66-4.15Z"/>
  </g>
  <g>
    <path class="uuid-e02f7f68-b21b-4491-a749-05b7107113a8" d="M155.01,104.09v-8.39c-.57.93-1.63,1.71-2.74,1.9v-1.36c1.19-.3,2.32-1.06,3-2.31h1.03v10.16h-1.29Z"/>
    <path class="uuid-e02f7f68-b21b-4491-a749-05b7107113a8" d="M158.68,98.96c0-3.47,1.84-5.24,4.06-5.24s4.03,1.77,4.03,5.24-1.65,5.33-4.03,5.33-4.06-1.86-4.06-5.33ZM165.4,98.96c0-2.47-1.03-4.06-2.66-4.06s-2.68,1.6-2.68,4.06c0,2.63,1,4.15,2.68,4.15s2.66-1.51,2.66-4.15Z"/>
    <path class="uuid-e02f7f68-b21b-4491-a749-05b7107113a8" d="M168.49,98.96c0-3.47,1.84-5.24,4.06-5.24s4.03,1.77,4.03,5.24-1.65,5.33-4.03,5.33-4.06-1.86-4.06-5.33ZM175.2,98.96c0-2.47-1.03-4.06-2.66-4.06s-2.68,1.6-2.68,4.06c0,2.63,1,4.15,2.68,4.15s2.66-1.51,2.66-4.15Z"/>
  </g>
  <path class="uuid-e02f7f68-b21b-4491-a749-05b7107113a8" d="M115.17,55.26v-10.16h1.76l5.62,7.97v-7.97h1.31v10.16h-1.32l-6.05-8.59v8.59h-1.31Z"/>
  <polygon class="uuid-e02f7f68-b21b-4491-a749-05b7107113a8" points="61.93 53.65 68.06 46.48 106.44 50.16 69.11 59.78 61.93 53.65"/>
</svg>
