<svg xmlns="http://www.w3.org/2000/svg" viewBox="0 0 110 65">
  <defs>
    <style>
      .uuid-2e13ee84-d988-4742-8821-14f2e7b85828 {
        fill: #123fd8cc;
      }
    </style>
  </defs>
  <g>
    <path class="uuid-2e13ee84-d988-4742-8821-14f2e7b85828" d="M101.17,27.23H4.74v2.26h96.43v-2.26ZM23.94,29.14h-9.42v-1.56h9.42v1.56ZM43.14,29.14h-9.25v-1.56h9.25v1.56ZM100.82,29.14h-47.69v-1.56h47.69v1.56Z"/>
    <path class="uuid-2e13ee84-d988-4742-8821-14f2e7b85828" d="M5.04,31.94c-1.34,0-2.46,1.07-2.46,3.17s1.01,3.22,2.46,3.22,2.44-1.12,2.44-3.22-1.11-3.17-2.44-3.17ZM5.04,37.62c-1.02,0-1.63-.92-1.63-2.51,0-1.49.62-2.46,1.63-2.46s1.61.97,1.61,2.46c0,1.6-.61,2.51-1.61,2.51Z"/>
    <path class="uuid-2e13ee84-d988-4742-8821-14f2e7b85828" d="M50.48,34.33c-.68,0-1.14.27-1.47.68.04-.27.09-.57.13-.9l.19-1.32h2.91v-.73h-3.5l-.51,3.49.84.13c.25-.4.64-.69,1.2-.69.81,0,1.32.52,1.32,1.33s-.52,1.33-1.33,1.33c-.69,0-1.22-.39-1.36-1.12l-.8.26c.17.85.9,1.55,2.2,1.55s2.11-.84,2.11-2.05-.76-1.96-1.94-1.96Z"/>
    <path class="uuid-2e13ee84-d988-4742-8821-14f2e7b85828" d="M55.87,31.94c-1.34,0-2.46,1.07-2.46,3.17s1.01,3.22,2.46,3.22,2.44-1.12,2.44-3.22-1.11-3.17-2.44-3.17ZM55.87,37.62c-1.02,0-1.63-.92-1.63-2.51,0-1.49.62-2.46,1.63-2.46s1.61.97,1.61,2.46c0,1.6-.61,2.51-1.61,2.51Z"/>
    <path class="uuid-2e13ee84-d988-4742-8821-14f2e7b85828" d="M92.7,33.46v.83c.68-.11,1.32-.59,1.66-1.15v5.08h.78v-6.15h-.62c-.41.76-1.1,1.21-1.82,1.4Z"/>
    <path class="uuid-2e13ee84-d988-4742-8821-14f2e7b85828" d="M99.04,31.94c-1.34,0-2.46,1.07-2.46,3.17s1.01,3.22,2.46,3.22,2.44-1.12,2.44-3.22-1.11-3.17-2.44-3.17ZM99.04,37.62c-1.02,0-1.63-.92-1.63-2.51,0-1.49.62-2.46,1.63-2.46s1.61.97,1.61,2.46c0,1.6-.61,2.51-1.61,2.51Z"/>
    <path class="uuid-2e13ee84-d988-4742-8821-14f2e7b85828" d="M104.98,31.94c-1.34,0-2.46,1.07-2.46,3.17s1.01,3.22,2.46,3.22,2.44-1.12,2.44-3.22-1.11-3.17-2.44-3.17ZM104.98,37.62c-1.02,0-1.63-.92-1.63-2.51,0-1.49.62-2.46,1.63-2.46s1.61.97,1.61,2.46c0,1.6-.61,2.51-1.61,2.51Z"/>
    <polygon class="uuid-2e13ee84-d988-4742-8821-14f2e7b85828" points="71.03 5 71.03 3.45 74.7 8.65 75.49 8.65 75.49 2.5 74.7 2.5 74.7 5.95 74.7 7.32 71.3 2.5 70.24 2.5 70.24 8.65 71.03 8.65 71.03 5"/>
    <polygon class="uuid-2e13ee84-d988-4742-8821-14f2e7b85828" points="64.95 5.56 41.72 3.33 38 7.68 42.35 11.39 64.95 5.56"/>
  </g>
  <path class="uuid-2e13ee84-d988-4742-8821-14f2e7b85828" d="M99.37,24.06v-5.41h.9v.85c.2-.38.68-1.01,1.66-1.01.81,0,1.43.45,1.69,1.17.22-.5.72-1.17,1.83-1.17,1.21,0,1.89.71,1.89,1.99v3.58h-.93v-3.32c0-1.03-.49-1.42-1.21-1.42-1.36,0-1.4,1.41-1.4,2.14v2.6h-.91v-3.31c0-1.04-.49-1.43-1.21-1.43-1.33,0-1.39,1.41-1.39,2.18v2.57h-.92Z"/>
</svg>
